<svg width="198" height="57" viewBox="0 0 198 57" fill="none" xmlns="http://www.w3.org/2000/svg">
<path d="M16.2278 44.177C14.0645 44.177 12.0192 43.764 10.0918 42.938C8.20384 42.112 6.55184 40.991 5.13584 39.575C3.75917 38.159 2.65784 36.507 1.83184 34.619C1.04517 32.6917 0.651836 30.6267 0.651836 28.424C0.651836 26.2607 1.06484 24.235 1.89084 22.347C2.71684 20.4197 3.83784 18.748 5.25384 17.332C6.66984 15.916 8.3415 14.8147 10.2688 14.028C12.1962 13.202 14.2612 12.789 16.4638 12.789C17.9978 12.789 19.4532 13.0053 20.8298 13.438C22.2458 13.8707 23.5635 14.4803 24.7828 15.267V13.261H32.7478V44C32.7478 48.0513 31.4302 51.1783 28.7948 53.381C26.1988 55.5837 22.4425 56.685 17.5258 56.685C15.1658 56.685 12.8845 56.449 10.6818 55.977C8.5185 55.505 6.53217 54.8167 4.72284 53.912L7.55484 47.599C9.24617 48.425 10.8982 49.0347 12.5108 49.428C14.1235 49.8607 15.7362 50.077 17.3488 50.077C19.7482 50.077 21.5575 49.546 22.7768 48.484C24.0355 47.4613 24.6648 45.947 24.6648 43.941V41.404C23.4455 42.3087 22.1082 42.997 20.6528 43.469C19.2368 43.941 17.7618 44.177 16.2278 44.177ZM8.61684 28.424C8.61684 30.902 9.4625 33.0063 11.1538 34.737C12.8845 36.4677 14.9888 37.333 17.4668 37.333C18.9222 37.333 20.2595 37.097 21.4788 36.625C22.6982 36.1137 23.7602 35.4253 24.6648 34.56V22.465C23.7995 21.5997 22.7375 20.931 21.4788 20.459C20.2202 19.9477 18.9025 19.692 17.5258 19.692C15.0478 19.692 12.9435 20.5377 11.2128 22.229C9.48217 23.9203 8.61684 25.9853 8.61684 28.424ZM37.6997 28.66C37.6997 26.418 38.1127 24.3333 38.9387 22.406C39.804 20.4393 40.9644 18.748 42.4197 17.332C43.9144 15.8767 45.6647 14.736 47.6707 13.91C49.6767 13.084 51.8204 12.671 54.1017 12.671C56.383 12.671 58.5267 13.084 60.5327 13.91C62.5387 14.736 64.2694 15.8767 65.7247 17.332C67.2194 18.748 68.3797 20.4393 69.2057 22.406C70.071 24.3333 70.5037 26.418 70.5037 28.66C70.5037 30.902 70.071 33.0063 69.2057 34.973C68.3797 36.9003 67.2194 38.572 65.7247 39.988C64.2694 41.404 62.5387 42.525 60.5327 43.351C58.5267 44.177 56.383 44.59 54.1017 44.59C51.8204 44.59 49.6767 44.177 47.6707 43.351C45.6647 42.525 43.9144 41.404 42.4197 39.988C40.9644 38.572 39.804 36.9003 38.9387 34.973C38.1127 33.0063 37.6997 30.902 37.6997 28.66ZM54.1017 37.569C56.4617 37.569 58.4677 36.7037 60.1197 34.973C61.7717 33.2423 62.5977 31.138 62.5977 28.66C62.5977 26.1427 61.7717 24.0187 60.1197 22.288C58.4677 20.5573 56.4617 19.692 54.1017 19.692C51.7417 19.692 49.7357 20.5573 48.0837 22.288C46.4317 24.0187 45.6057 26.1427 45.6057 28.66C45.6057 31.138 46.4317 33.2423 48.0837 34.973C49.7357 36.7037 51.7417 37.569 54.1017 37.569ZM76.0031 2.7H95.4141C99.5441 2.7 102.907 3.762 105.503 5.886C108.099 7.97066 109.397 10.6847 109.397 14.028C109.397 15.8373 108.945 17.4893 108.04 18.984C107.135 20.4787 105.896 21.7177 104.323 22.701C106.29 23.645 107.863 24.943 109.043 26.595C110.223 28.2077 110.813 30.017 110.813 32.023C110.813 35.6023 109.476 38.4933 106.801 40.696C104.166 42.8987 100.685 44 96.3581 44H76.0031V2.7ZM94.8831 9.78H84.5581V19.574H94.8831C96.6925 19.574 98.1478 19.1413 99.2491 18.276C100.35 17.3713 100.901 16.1717 100.901 14.677C100.901 13.1823 100.35 12.0023 99.2491 11.137C98.1478 10.2323 96.6925 9.78 94.8831 9.78ZM95.7091 36.92C97.6758 36.92 99.2491 36.448 100.429 35.504C101.609 34.5207 102.199 33.203 102.199 31.551C102.199 29.9777 101.609 28.6993 100.429 27.716C99.2491 26.7327 97.6758 26.241 95.7091 26.241H84.5581V36.92H95.7091ZM124.348 0.929999V44H116.265V2.7L124.348 0.929999ZM129.253 28.66C129.253 26.418 129.666 24.3333 130.492 22.406C131.358 20.4393 132.518 18.748 133.973 17.332C135.468 15.8767 137.218 14.736 139.224 13.91C141.23 13.084 143.374 12.671 145.655 12.671C147.937 12.671 150.08 13.084 152.086 13.91C154.092 14.736 155.823 15.8767 157.278 17.332C158.773 18.748 159.933 20.4393 160.759 22.406C161.625 24.3333 162.057 26.418 162.057 28.66C162.057 30.902 161.625 33.0063 160.759 34.973C159.933 36.9003 158.773 38.572 157.278 39.988C155.823 41.404 154.092 42.525 152.086 43.351C150.08 44.177 147.937 44.59 145.655 44.59C143.374 44.59 141.23 44.177 139.224 43.351C137.218 42.525 135.468 41.404 133.973 39.988C132.518 38.572 131.358 36.9003 130.492 34.973C129.666 33.0063 129.253 30.902 129.253 28.66ZM145.655 37.569C148.015 37.569 150.021 36.7037 151.673 34.973C153.325 33.2423 154.151 31.138 154.151 28.66C154.151 26.1427 153.325 24.0187 151.673 22.288C150.021 20.5573 148.015 19.692 145.655 19.692C143.295 19.692 141.289 20.5573 139.637 22.288C137.985 24.0187 137.159 26.1427 137.159 28.66C137.159 31.138 137.985 33.2423 139.637 34.973C141.289 36.7037 143.295 37.569 145.655 37.569ZM181.416 44.177C179.253 44.177 177.208 43.764 175.28 42.938C173.392 42.112 171.74 40.991 170.324 39.575C168.948 38.159 167.846 36.507 167.02 34.619C166.234 32.6917 165.84 30.6267 165.84 28.424C165.84 26.2607 166.253 24.235 167.079 22.347C167.905 20.4197 169.026 18.748 170.442 17.332C171.858 15.916 173.53 14.8147 175.457 14.028C177.385 13.202 179.45 12.789 181.652 12.789C183.186 12.789 184.642 13.0053 186.018 13.438C187.434 13.8707 188.752 14.4803 189.971 15.267V13.261H197.936V44C197.936 48.0513 196.619 51.1783 193.983 53.381C191.387 55.5837 187.631 56.685 182.714 56.685C180.354 56.685 178.073 56.449 175.87 55.977C173.707 55.505 171.721 54.8167 169.911 53.912L172.743 47.599C174.435 48.425 176.087 49.0347 177.699 49.428C179.312 49.8607 180.925 50.077 182.537 50.077C184.937 50.077 186.746 49.546 187.965 48.484C189.224 47.4613 189.853 45.947 189.853 43.941V41.404C188.634 42.3087 187.297 42.997 185.841 43.469C184.425 43.941 182.95 44.177 181.416 44.177ZM173.805 28.424C173.805 30.902 174.651 33.0063 176.342 34.737C178.073 36.4677 180.177 37.333 182.655 37.333C184.111 37.333 185.448 37.097 186.667 36.625C187.887 36.1137 188.949 35.4253 189.853 34.56V22.465C188.988 21.5997 187.926 20.931 186.667 20.459C185.409 19.9477 184.091 19.692 182.714 19.692C180.236 19.692 178.132 20.5377 176.401 22.229C174.671 23.9203 173.805 25.9853 173.805 28.424Z" fill="#7448FF"/>
</svg>
